<svg width="256" height="256" viewBox="0 0 256 256" fill="none" xmlns="http://www.w3.org/2000/svg">
<path d="M68.081 97.8567C73.7005 95.3637 79.596 93.5201 85.6489 92.3632C94.1212 107.067 103.534 123.143 110.457 134.263C110.09 133.723 109.775 133.286 109.529 132.98C108.271 131.417 100.149 122.72 85.6105 129.02C85.6105 129.02 73.5209 135.948 76.4433 149.655C79.3658 163.361 92.8066 164.234 93.6921 164.234C94.5776 164.234 127.929 163.979 127.929 163.979C127.929 163.979 119.325 148.639 113.684 139.361C115.812 142.658 117.556 145.196 118.761 146.692C121.852 150.531 139.342 169.352 170.344 163.64C181.513 183.026 191.041 200 191.041 200H91.4333C88.8665 200 49.998 197.147 41.5642 157.521C33.1305 117.894 61.2259 100.841 68.081 97.8567Z" fill="#0049FC"/>
<path d="M146.465 123.02C147.723 124.583 155.845 133.28 170.384 126.98C170.384 126.98 182.474 120.052 179.551 106.345C176.629 92.6385 163.19 91.7656 162.304 91.7656C161.419 91.7656 128.067 92.0212 128.067 92.0212C128.067 92.0212 136.671 107.361 142.313 116.638C140.184 113.342 138.44 110.804 137.236 109.308C134.145 105.469 116.654 86.6482 85.6526 92.3596C74.4834 72.9738 64.9551 56 64.9551 56H164.567C167.134 56 206.002 58.853 214.436 98.4795C222.87 138.106 194.772 155.159 187.917 158.143C182.299 160.638 176.405 162.483 170.353 163.642C161.881 148.938 152.468 132.863 145.545 121.742C145.901 122.272 146.22 122.714 146.465 123.02Z" fill="#00CBFE"/>
<path opacity="0.5" d="M118.872 146.688C117.668 145.193 115.924 142.655 113.796 139.357C112.527 137.271 111.412 135.498 110.574 134.268C103.651 123.154 94.2384 107.073 85.7662 92.3686C116.767 86.6573 134.258 105.478 137.35 109.317C138.554 110.813 140.298 113.351 142.426 116.647C143.695 118.735 144.81 120.508 145.648 121.737C152.571 132.852 161.983 148.933 170.456 163.637C139.454 169.348 121.963 150.528 118.872 146.688Z" fill="#00CBFE"/>
<path opacity="0.5" d="M118.872 146.688C117.668 145.193 115.924 142.655 113.796 139.357C112.527 137.271 111.412 135.498 110.574 134.268C103.651 123.154 94.2384 107.073 85.7662 92.3686C116.767 86.6573 134.258 105.478 137.35 109.317C138.554 110.813 140.298 113.351 142.426 116.647C143.695 118.735 144.81 120.508 145.648 121.737C152.571 132.852 161.983 148.933 170.456 163.637C139.454 169.348 121.963 150.528 118.872 146.688Z" fill="#0049FC"/>
</svg>
